Coordinates
version=1
nRows=15
nColumns=42
inDegrees=yes

Units are S.I. units (second, meters, Newtons, ...)
If the header above contains a line with 'inDegrees', this indicates whether rotational values are in degrees (yes) or radians (no).

endheader
time	pelvis_tilt	pelvis_list	pelvis_rotation	pelvis_tx	pelvis_ty	pelvis_tz	hip_flexion_r	hip_adduction_r	hip_rotation_r	knee_angle_r	knee_adduction_r	knee_angle_r_beta	ankle_angle_r	subtalar_angle_r	mtp_angle_r	hip_flexion_l	hip_adduction_l	hip_rotation_l	knee_angle_l	knee_adduction_l	knee_angle_l_beta	ankle_angle_l	subtalar_angle_l	mtp_angle_l	lumbar_extension	lumbar_bending	lumbar_rotation	arm_flex_r	arm_add_r	arm_rot_r	elbow_flex_r	pro_sup_r	wrist_flex_r	wrist_dev_r	arm_flex_l	arm_add_l	arm_rot_l	elbow_flex_l	pro_sup_l	wrist_flex_l	wrist_dev_l
      0.88000000	     25.47943351	      0.62218878	      4.48964552	     -1.47643588	      0.93064208	      0.14500881	    -14.88596427	      1.43310530	    -39.72636123	     26.67357805	     -7.78658727	      0.46554176	     30.89188751	     35.08846565	     -7.81757381	    -18.26918894	     -1.79405899	    -16.17217415	     52.51258166	    -14.88912699	      0.91651745	     21.24545071	     19.95445843	     -7.81757381	    -51.96786054	      6.22893344	     -3.88024083	      5.84187213	    -15.78183733	     10.04122936	     47.32249709	     90.00000001	      0.00000000	      0.00000000	     11.90514101	    -12.33190113	     -0.18331235	     48.18839770	     90.00000001	      0.00000000	      0.00000000
      0.89000000	     25.52840882	      0.87762390	      4.39440359	     -1.46422283	      0.93140313	      0.14586468	    -16.12453331	      1.29765986	    -39.71448785	     26.17977878	     -7.48592901	      0.45692334	     31.11931995	     34.82422533	     -7.81428512	    -16.44227300	     -1.51964768	    -16.37812615	     52.44956939	    -14.75583507	      0.91541768	     21.75605919	     19.49723774	     -7.81428512	    -52.13755588	      5.82451418	     -3.74213494	      6.27229586	    -16.00872486	     10.05421144	     47.69880452	     90.00000001	      0.00000000	      0.00000000	     11.30314909	    -12.31017924	     -0.21848438	     47.92445746	     90.00000001	      0.00000000	      0.00000000
      0.90000000	     25.83696200	      0.99496167	      4.56113444	     -1.45169726	      0.93220103	      0.14620660	    -17.87004612	      1.48092840	    -39.70438725	     25.32097332	     -7.03010576	      0.44193435	     31.97099780	     35.23220715	     -7.80950587	    -15.00159772	     -1.31893560	    -16.51451740	     51.93415954	    -14.96395846	      0.90642208	     22.90080929	     18.61733319	     -7.80950587	    -52.51043282	      5.76282104	     -3.65277343	      6.57464645	    -16.36053077	     10.28098653	     48.24890552	     90.00000001	      0.00000000	      0.00000000	     10.66197304	    -12.23868392	     -0.35970699	     47.62822517	     90.00000001	      0.00000000	      0.00000000
      0.91000000	     26.28491909	      1.06861834	      4.49012370	     -1.43894695	      0.93299166	      0.14700344	    -19.75937604	      1.67593654	    -39.68841477	     24.39435697	     -6.69081903	      0.42576185	     32.34960448	     35.85226297	     -7.79993246	    -13.91458633	     -1.24775856	    -16.70122717	     51.05470763	    -14.65257504	      0.89107275	     23.44391603	     18.08983656	     -7.79993246	    -53.00175863	      5.54466964	     -3.36217694	      6.87724415	    -16.83349355	     10.74840013	     48.86932488	     90.00000001	      0.00000000	      0.00000000	      9.90534995	    -12.14636750	     -0.60182678	     47.57574839	     90.00000001	      0.00000000	      0.00000000
      0.92000000	     26.56611745	      1.13045809	      4.38676370	     -1.42625358	      0.93323650	      0.14778625	    -21.38412086	      1.81411296	    -39.66871900	     23.63262464	     -6.36229641	      0.41246711	     32.83247537	     36.13752922	     -7.79126892	    -12.62854759	     -1.12559130	    -17.14475766	     50.02849594	    -14.56785847	      0.87316197	     24.02017593	     17.71997918	     -7.79126892	    -53.31444315	      5.30765400	     -3.05042270	      7.20217754	    -17.19738110	     10.93711281	     49.32463064	     90.00000001	      0.00000000	      0.00000000	      9.16248688	    -12.05365583	     -0.77825148	     47.43211443	     90.00000001	      0.00000000	      0.00000000
      0.93000000	     26.80590433	      1.17673015	      4.28452096	     -1.41365851	      0.93317289	      0.14845336	    -22.93880413	      1.96803933	    -39.64643256	     22.89059566	     -6.07437676	      0.39951626	     33.33419372	     36.35392146	     -7.78415099	    -11.33136796	     -1.02218907	    -17.69276972	     48.79992329	    -14.47243429	      0.85171934	     24.52001213	     17.42915653	     -7.78415099	    -53.58384855	      5.10068858	     -2.72084712	      7.54786553	    -17.57738328	     11.02353326	     49.71992973	     90.00000001	      0.00000000	      0.00000000	      8.44454651	    -11.95185911	     -0.96295873	     47.29048071	     90.00000001	      0.00000000	      0.00000000
      0.94000000	     26.96493231	      1.18162473	      4.17803271	     -1.40104045	      0.93271740	      0.14918074	    -24.39010524	      2.18263170	    -39.61868058	     22.12472211	     -5.85010606	      0.38614925	     33.90086811	     36.58061173	     -7.77912255	     -9.99259008	     -0.93207812	    -18.25226666	     47.39455317	    -14.39554184	      0.82719100	     24.96178766	     17.12499059	     -7.77912255	    -53.75670022	      4.89642846	     -2.34526361	      7.89454479	    -17.90507967	     11.05151780	     50.03939010	     90.00000001	      0.00000000	      0.00000000	      7.73431146	    -11.84678970	     -1.15144825	     47.11265654	     90.00000001	      0.00000000	      0.00000000
      0.95000000	     27.20951462	      1.19521479	      4.02086489	     -1.38828789	      0.93219748	      0.14988848	    -25.98932143	      2.32645404	    -39.59234386	     21.32954501	     -5.52972137	      0.37227079	     34.34199512	     36.90500347	     -7.77314912	     -8.88600508	     -0.86664996	    -18.89127500	     45.67209811	    -14.15478502	      0.79712849	     25.18946584	     17.25458182	     -7.77314912	    -54.00166352	      4.66908519	     -1.97655086	      8.20556078	    -18.26792481	     11.09955542	     50.41581873	     90.00000001	      0.00000000	      0.00000000	      6.97322210	    -11.72495769	     -1.47506270	     47.01567710	     90.00000001	      0.00000000	      0.00000000
      0.96000000	     27.30252004	      1.14568299	      3.87692081	     -1.37569468	      0.93124792	      0.15052495	    -27.36001430	      2.51381399	    -39.56168854	     20.61084893	     -5.24593068	      0.35972718	     34.74093749	     37.17323117	     -7.76711559	     -7.62802968	     -0.84444693	    -19.52025066	     43.81983775	    -13.89421516	      0.76480045	     25.33785866	     17.64297741	     -7.76711559	    -54.10890136	      4.49290228	     -1.56361094	      8.56321464	    -18.61231718	     11.09898791	     50.70193987	     90.00000001	      0.00000000	      0.00000000	      6.24999737	    -11.56868042	     -1.82741410	     46.89265743	     90.00000001	      0.00000000	      0.00000000
      0.97000000	     26.99134693	      0.83417513	      3.81205432	     -1.36345195	      0.92942756	      0.15119329	    -28.06741048	      2.93589779	    -39.54215115	     20.24153060	     -5.08253186	      0.35328135	     35.13041370	     37.06066600	     -7.76431191	     -5.81242731	     -1.10215291	    -19.79742291	     42.13929184	    -13.46876954	      0.73546939	     25.34842627	     17.58419319	     -7.76431191	    -53.83548656	      4.54877077	     -1.01217562	      8.98027852	    -18.94312673	     10.99611986	     50.84250213	     90.00000001	      0.00000000	      0.00000000	      5.57246752	    -11.44981895	     -1.97925081	     46.68880503	     90.00000001	      0.00000000	      0.00000000
      0.98000000	     26.84046545	      0.69791878	      3.71727035	     -1.35128212	      0.92778927	      0.15167774	    -29.04158202	      3.31187779	    -39.52574437	     19.50922764	     -5.12072656	      0.34050026	     35.74970099	     37.39288712	     -7.76094577	     -4.33705964	     -1.14179490	    -20.08437924	     40.08290629	    -12.94189542	      0.69957869	     25.27130769	     18.15189822	     -7.76094577	    -53.76188355	      4.47917701	     -0.57256545	      9.38959395	    -19.25165439	     10.87976305	     51.01737136	     90.00000001	      0.00000000	      0.00000000	      5.00736750	    -11.22536597	     -2.36870428	     46.42084834	     90.00000001	      0.00000000	      0.00000000
      0.99000000	     26.31243647	      0.35012339	      3.62879835	     -1.33931146	      0.92536282	      0.15222481	    -29.37918304	      3.77539827	    -39.53515946	     19.23710755	     -5.21683060	      0.33575087	     36.25030275	     37.51000208	     -7.75736324	     -2.42181037	     -1.41788459	    -20.20297776	     38.05449058	    -12.29147107	      0.66417616	     25.01519443	     18.91004938	     -7.75736324	    -53.32257393	      4.55411177	     -0.01690275	      9.81804932	    -19.55241213	     10.70527411	     51.11855067	     90.00000001	      0.00000000	      0.00000000	      4.45003198	    -11.00177770	     -2.80637432	     46.09832724	     90.00000001	      0.00000000	      0.00000000
      1.00000000	     25.68602217	     -0.10097473	      3.58665062	     -1.32746998	      0.92260793	      0.15267897	    -29.54893145	      4.37263065	    -39.55088643	     19.03710486	     -5.37761048	      0.33226016	     36.79382076	     37.54734905	     -7.75388653	     -0.42346915	     -1.81857205	    -20.15100658	     35.99170179	    -11.53944334	      0.62817370	     24.62361468	     19.83689967	     -7.75388653	    -52.79141040	      4.75107943	      0.57687174	     10.26635351	    -19.84442261	     10.48111902	     51.18097373	     90.00000001	      0.00000000	      0.00000000	      3.95893550	    -10.72234382	     -3.26096531	     45.70624025	     90.00000001	      0.00000000	      0.00000000
      1.01000000	     24.98605923	     -0.59347589	      3.58884915	     -1.31558061	      0.91958450	      0.15309714	    -29.64451779	      5.02444020	    -39.57500660	     18.84982994	     -5.50494060	      0.32899160	     37.35905980	     37.58270823	     -7.74892797	      1.59559832	     -2.32825884	    -20.09622996	     33.85498056	    -10.67020916	      0.59088088	     24.11396529	     21.45704915	     -7.74892797	    -52.16970247	      5.00784805	      1.12989638	     10.71514669	    -20.04066951	     10.13237677	     51.22218967	     90.00000001	      0.00000000	      0.00000000	      3.53545288	    -10.40873363	     -4.00092217	     45.13587979	     90.00000001	      0.00000000	      0.00000000
      1.02000000	     24.28044159	     -1.21861163	      3.63078886	     -1.30348279	      0.91636743	      0.15327027	    -29.70694238	      5.81336796	    -39.60360466	     18.70882555	     -5.64849268	      0.32653060	     37.74455078	     37.52965635	     -7.74161632	      3.57062388	     -2.95769971	    -20.10374737	     31.71102131	     -9.93984882	      0.55346173	     23.61271202	     23.42833076	     -7.74161632	    -51.50965806	      5.42692600	      1.75270523	     11.04526299	    -20.28269882	      9.67481460	     51.21000735	     90.00000001	      0.00000000	      0.00000000	      3.07332412	    -10.00167068	     -4.82017500	     44.58828029	     90.00000001	      0.00000000	      0.00000000
